<svg xmlns="http://www.w3.org/2000/svg" width="300" height="360" viewBox="0 0 300 360">
    <path
      fill="transparent" stroke="black" stroke-width="2"
      d="M150 10 L215 65 L235 125 L285 225 L250 260 M150 180 L190 145 L210 180 L200 245 L150 330 
      M210 180 L255 235 M150 330 L250 230 M250 260 L270 220 M255 235 L250 260 M250 260 L235 245 M270 220 L235 175
      M150 10 L85 65 L65 125 L15 225 L50 260 M150 180 L110 145 L90 180 L100 245 L150 330 M90 180 L45 235 M150 330 
      L50 230 M50 260 L30 220 M45 235 L50 260 M50 260 L65 245 M30 220 L65 175
      M150 10 L150 180 M215 65 L200 70 M85 65 L100 70 M190 145 L200 70 M110 145 L100 70 M235 125 L230 150 M65 125 L70 150"
    />
  </svg>
